<svg xmlns="http://www.w3.org/2000/svg" viewBox="0 0 1280 640" role="img" aria-labelledby="title desc">
  <title id="title">BRIDGE methodology</title>
  <desc id="desc">Designs that can cross the gap.</desc>
  <rect width="1280" height="640" fill="#F4F6F8"/>
  <path d="M0 96H1280M0 544H1280" stroke="#D9DEE3"/>
  <path d="M80 0V640M1200 0V640" stroke="#E4E8EC"/>

  <g transform="translate(80 80)">
    <rect width="72" height="72" rx="16" fill="#1E1E1E"/>
    <rect x="16" y="15" width="19" height="11" rx="2" fill="#0D99FF"/>
    <path d="M38 15h8a11 11 0 0 1 11 11H38V15Z" fill="#FFFFFF"/>
    <rect x="16" y="31" width="19" height="11" rx="2" fill="#FFFFFF"/>
    <path d="M38 31h8a11 11 0 0 1 11 11H38V31Z" fill="#0D99FF"/>
    <rect x="16" y="47" width="19" height="11" rx="2" fill="#0D99FF"/>
    <path d="M38 47h8a11 11 0 0 1 11 11H38V47Z" fill="#FFFFFF"/>
    <text x="96" y="50" fill="#1E1E1E" font-family="Inter, Arial, Helvetica, sans-serif" font-size="42" font-weight="750" letter-spacing="4">BRIDGE</text>
  </g>

  <text x="80" y="270" fill="#1E1E1E" font-family="Inter, Arial, Helvetica, sans-serif" font-size="58" font-weight="720">
    <tspan x="80" dy="0">Designs that can</tspan>
    <tspan x="80" dy="68">cross the gap.</tspan>
  </text>
  <text x="80" y="440" fill="#58616B" font-family="Inter, Arial, Helvetica, sans-serif" font-size="24" font-weight="450">A contract between design intent and implementation.</text>

  <g transform="translate(785 104)" font-family="Inter, Arial, Helvetica, sans-serif">
    <path d="M-36 216H30M390 216H456" stroke="#0D99FF" stroke-width="4" stroke-linecap="round"/>
    <rect width="420" height="432" rx="40" fill="#1E1E1E"/>
    <g transform="translate(46 48)" font-size="18" font-weight="650">
      <g>
        <rect width="144" height="88" rx="12" fill="#0D99FF"/>
        <text x="20" y="37" fill="#052E49">B</text>
        <text x="20" y="62" fill="#FFFFFF">Breakpoints</text>
      </g>
      <g transform="translate(184 0)">
        <path d="M0 0h56c48.601 0 88 39.399 88 88H0V0Z" fill="#FFFFFF"/>
        <text x="20" y="37" fill="#58616B">R</text>
        <text x="20" y="62" fill="#1E1E1E">Roles</text>
      </g>
      <g transform="translate(0 124)">
        <rect width="144" height="88" rx="12" fill="#FFFFFF"/>
        <text x="20" y="37" fill="#58616B">I</text>
        <text x="20" y="62" fill="#1E1E1E">Identity</text>
      </g>
      <g transform="translate(184 124)">
        <path d="M0 0h56c48.601 0 88 39.399 88 88H0V0Z" fill="#0D99FF"/>
        <text x="20" y="37" fill="#052E49">D</text>
        <text x="20" y="62" fill="#FFFFFF">Dependencies</text>
      </g>
      <g transform="translate(0 248)">
        <rect width="144" height="88" rx="12" fill="#0D99FF"/>
        <text x="20" y="37" fill="#052E49">G</text>
        <text x="20" y="62" fill="#FFFFFF">Geometry</text>
      </g>
      <g transform="translate(184 248)">
        <path d="M0 0h56c48.601 0 88 39.399 88 88H0V0Z" fill="#FFFFFF"/>
        <text x="20" y="37" fill="#58616B">E</text>
        <text x="20" y="62" fill="#1E1E1E">Exceptions</text>
      </g>
    </g>
  </g>
</svg>
